#tb 0: 16/125
0,          0,          0,        1,   921600, 0x2e2b3ca4
0,          1,          1,        1,   921600, 0x0ff7a368
0,          2,          2,        1,   921600, 0xf5f0dc50
0,          3,          3,        1,   921600, 0x56cb0c9d
0,          4,          4,        1,   921600, 0xb253228f
0,          5,          5,        1,   921600, 0xefd3419e
0,          6,          6,        1,   921600, 0x708c0ce7
0,          7,          7,        1,   921600, 0x0b3a7f6d
0,          8,          8,        1,   921600, 0x72db4eac
0,          9,          9,        1,   921600, 0x94328111
0,         10,         10,        1,   921600, 0x95f7b2f0
0,         11,         11,        1,   921600, 0xdc3c9655
0,         12,         12,        1,   921600, 0xfe03dec6
0,         13,         13,        1,   921600, 0x2551dffb
0,         14,         14,        1,   921600, 0xe8b37d9e
0,         15,         15,        1,   921600, 0xad93508b
0,         16,         16,        1,   921600, 0x5a1c4890
0,         17,         17,        1,   921600, 0x6f972fb4
0,         18,         18,        1,   921600, 0xa1d5ff95
0,         19,         19,        1,   921600, 0x7bc5d07c
0,         20,         20,        1,   921600, 0xc0311e4e
0,         21,         21,        1,   921600, 0x5b02cc48
0,         22,         22,        1,   921600, 0x8db4d5fa
0,         23,         23,        1,   921600, 0x31aae769
0,         24,         24,        1,   921600, 0xab62b9a7
